<svg width="25" height="25" viewBox="0 0 25 25" fill="none" xmlns="http://www.w3.org/2000/svg">
<path fill-rule="evenodd" clip-rule="evenodd" d="M0 12.5C0 5.59692 5.59692 0 12.5 0C19.4031 0 25 5.59692 25 12.5C25 19.4031 19.4031 25 12.5 25C5.59692 25 0 19.4031 0 12.5ZM14.3095 8.57063C14.3095 7.64311 13.5788 6.88881 12.6803 6.88881C11.7818 6.88881 11.0511 7.64311 11.0511 8.57063C11.0511 9.49535 11.7818 10.2496 12.6803 10.2496C13.5788 10.2496 14.3095 9.49535 14.3095 8.57063ZM16.6153 8.57063C16.6153 10.8084 14.8508 12.6299 12.6803 12.6299C10.5099 12.6299 8.74808 10.8084 8.74808 8.57063C8.74808 6.33007 10.5099 4.50857 12.6803 4.50857C14.8508 4.50857 16.6153 6.33007 16.6153 8.57063ZM16.5558 14.9654C15.844 15.4264 15.0727 15.7533 14.2717 15.9432L16.4719 18.2117C16.9211 18.6755 16.9211 19.4298 16.4719 19.8936C16.0199 20.3601 15.2919 20.3601 14.8427 19.8936L12.6803 17.6642L10.5207 19.8936C10.2934 20.1254 9.99839 20.2428 9.7034 20.2428C9.40842 20.2428 9.11613 20.1254 8.88881 19.8936C8.43956 19.4298 8.43956 18.6755 8.88881 18.2117L11.089 15.9432C10.288 15.7533 9.51667 15.4264 8.80491 14.9654C8.26635 14.6162 8.10398 13.8815 8.44226 13.3255C8.78055 12.7668 9.49231 12.5992 10.0309 12.9512C11.6438 13.996 13.7169 13.996 15.3271 12.9512C15.8684 12.5992 16.5774 12.7668 16.9184 13.3255C17.2567 13.8815 17.0943 14.6162 16.5558 14.9654Z" fill="white"/>
</svg>
