<svg width="24" height="24" viewBox="0 0 24 24" fill="none" xmlns="http://www.w3.org/2000/svg">
<circle cx="12" cy="12" r="12" fill="url(#paint0_linear_16610_27)"/>
<path d="M11.76 18.14C11.1067 18.14 10.54 18.04 10.06 17.84C9.58 17.64 9.21333 17.2867 8.96 16.78C8.72 16.2733 8.6 15.56 8.6 14.64V13.96C8.92 13.96 9.24667 13.96 9.58 13.96C9.91333 13.96 10.24 13.96 10.56 13.96V14.8C10.56 15.36 10.6133 15.7933 10.72 16.1C10.8267 16.4067 10.9733 16.62 11.16 16.74C11.3467 16.8467 11.56 16.9 11.8 16.9C12.1867 16.9 12.4933 16.7733 12.72 16.52C12.96 16.2533 13.08 15.76 13.08 15.04C13.08 14.5067 13 14.1067 12.84 13.84C12.68 13.5733 12.4267 13.36 12.08 13.2C11.7467 13.0267 11.3133 12.8333 10.78 12.62C10.34 12.42 9.96 12.1867 9.64 11.92C9.32 11.6533 9.08 11.3133 8.92 10.9C8.76 10.4867 8.68 9.97333 8.68 9.36C8.68 8.61333 8.77333 8.00667 8.96 7.54C9.16 7.06 9.49333 6.71333 9.96 6.5C10.4267 6.27333 11.0533 6.16 11.84 6.16C12.8533 6.16 13.6267 6.39333 14.16 6.86C14.6933 7.31333 14.96 7.98 14.96 8.86V10.24C14.6533 10.24 14.34 10.24 14.02 10.24C13.7133 10.24 13.4 10.24 13.08 10.24V9.42C13.08 8.80667 12.98 8.36667 12.78 8.1C12.5933 7.82 12.2867 7.68 11.86 7.68C11.42 7.68 11.1 7.81333 10.9 8.08C10.7133 8.33333 10.62 8.74 10.62 9.3C10.62 9.78 10.7133 10.1533 10.9 10.42C11.0867 10.6733 11.3267 10.8733 11.62 11.02C11.9267 11.1667 12.24 11.3 12.56 11.42C13.16 11.6467 13.6467 11.88 14.02 12.12C14.3933 12.36 14.6667 12.68 14.84 13.08C15.0133 13.48 15.1 14.0467 15.1 14.78C15.1 15.62 14.96 16.2867 14.68 16.78C14.4133 17.26 14.0267 17.6067 13.52 17.82C13.0267 18.0333 12.44 18.14 11.76 18.14Z" fill="black"/>
<defs>
<linearGradient id="paint0_linear_16610_27" x1="2.6087" y1="4.69565" x2="22.4348" y2="18.2609" gradientUnits="userSpaceOnUse">
<stop stop-color="#ED0233"/>
<stop offset="1" stop-color="#003EB7"/>
</linearGradient>
</defs>
</svg>
