<svg width="25" height="25" viewBox="0 0 25 25" fill="none" xmlns="http://www.w3.org/2000/svg"><path fill-rule="evenodd" clip-rule="evenodd" d="M0 12.5C0 5.59692 5.59692 0 12.5 0C19.4031 0 25 5.59692 25 12.5C25 19.4031 19.4031 25 12.5 25C5.59692 25 0 19.4031 0 12.5ZM12.7195 6.10741C12.9876 5.7816 13.4055 5.55566 13.8509 5.55566C14.5707 5.55566 15.054 6.04796 15.3031 6.37378C15.342 6.42431 15.377 6.47136 15.4086 6.51384C15.4781 6.6073 15.5312 6.67864 15.5733 6.71624C15.6345 6.77094 15.6514 6.77332 15.7421 6.77332V7.99098C15.4171 7.99098 15.1174 7.84115 14.9147 7.66754C14.7352 7.51375 14.6154 7.35624 14.514 7.22309C14.501 7.20593 14.4882 7.18916 14.4757 7.17286C14.4534 7.1439 14.433 7.11668 14.4138 7.09115C14.2455 6.86722 14.1749 6.77332 13.8509 6.77332C13.6841 6.77332 13.6124 6.82326 13.5132 6.94455C13.414 7.06584 13.3211 7.28702 13.243 7.59143C13.1184 8.07659 13.0741 8.72109 13.0572 9.34181C14.3026 9.42743 15.4297 9.79843 16.3669 10.3692C16.749 10.0481 17.2091 9.86978 17.6503 9.87454C18.1527 9.87929 18.6297 10.0957 18.9843 10.5404C19.6619 11.3895 19.5838 12.7784 18.7986 13.6036C18.8471 13.8581 18.883 14.1197 18.883 14.3837C18.883 17.1781 16.025 19.4446 12.5 19.4446C8.97498 19.4446 6.11698 17.1805 6.11698 14.3837C6.11698 14.1197 6.15286 13.8581 6.20142 13.6036C5.4162 12.7784 5.3381 11.3895 6.01566 10.5404C6.37028 10.0957 6.84731 9.87929 7.34968 9.87454C7.79083 9.86978 8.25098 10.0481 8.63303 10.3692C9.57444 9.79606 10.7079 9.42505 11.9596 9.34181C11.9723 8.66877 12.0251 7.92201 12.196 7.24897C12.3037 6.8304 12.4514 6.43323 12.7195 6.10741ZM15.8435 7.38215C15.8435 6.43561 16.5231 5.66982 17.3632 5.66982C18.2033 5.66982 18.883 6.43561 18.883 7.38215C18.883 8.32869 18.2033 9.09448 17.3632 9.09448C16.5231 9.09448 15.8435 8.32869 15.8435 7.38215ZM18.3426 7.38215C18.3426 6.77332 17.9036 6.27865 17.3632 6.27865C16.8229 6.27865 16.3838 6.77332 16.3838 7.38215C16.3838 7.99098 16.8229 8.48565 17.3632 8.48565C17.9036 8.48565 18.3426 7.99098 18.3426 7.38215ZM18.0218 14.3837C18.0218 12.1695 15.491 10.2931 12.5 10.2931C9.50901 10.2931 6.97818 12.1695 6.97818 14.3837C6.97818 16.6002 9.50901 18.4742 12.5 18.4742C15.491 18.4742 18.0218 16.6002 18.0218 14.3837ZM7.82249 10.959C7.67263 10.8853 7.51643 10.8472 7.36656 10.8449C7.09005 10.8425 6.83887 10.959 6.65734 11.1873C6.40827 11.4989 6.35339 12.0863 6.55602 12.5572C6.84943 11.9555 7.28002 11.4228 7.82249 10.959ZM18.3426 11.1873C18.1611 10.959 17.9099 10.8425 17.6334 10.8449C17.4835 10.8472 17.3273 10.8853 17.1775 10.959C17.72 11.4228 18.1506 11.9555 18.4439 12.5572C18.6466 12.0863 18.5917 11.4989 18.3426 11.1873ZM9.35915 13.4704C9.35915 12.8616 9.79819 12.3669 10.3385 12.3669C10.8789 12.3669 11.3179 12.8616 11.3179 13.4704C11.3179 14.0793 10.8789 14.5739 10.3385 14.5739C9.79819 14.5739 9.35915 14.0793 9.35915 13.4704ZM13.682 13.4704C13.682 12.8616 14.1211 12.3669 14.6614 12.3669C15.2018 12.3669 15.6408 12.8616 15.6408 13.4704C15.6408 14.0793 15.2018 14.5739 14.6614 14.5739C14.1211 14.5739 13.682 14.0793 13.682 13.4704ZM12.5 17.6942C11.223 17.6942 10.1591 16.9165 9.81507 16.115C10.4399 16.5693 11.4087 16.8761 12.5 16.8761C13.5913 16.8761 14.577 16.5693 15.2018 16.115C14.8577 16.9165 13.777 17.6942 12.5 17.6942Z" fill="white"/></svg>