<svg width="25" height="25" viewBox="0 0 25 25" fill="none" xmlns="http://www.w3.org/2000/svg"><path fill-rule="evenodd" clip-rule="evenodd" d="M0 12.5C0 5.59692 5.59692 0 12.5 0C19.4031 0 25 5.59692 25 12.5C25 19.4031 19.4031 25 12.5 25C5.59692 25 0 19.4031 0 12.5ZM14.6407 15.7196C14.3024 15.3275 13.9899 14.9654 13.7227 15.0518C13.2754 15.1953 13.2898 16.1719 13.2898 16.1719C13.2898 16.1719 13.2944 16.3807 13.1907 16.4919C13.0796 16.6113 12.8624 16.6363 12.8624 16.6363H12.1423C12.1423 16.6363 10.5531 16.734 9.15473 15.2606C7.62944 13.6557 6.28242 10.4694 6.28242 10.4694C6.28242 10.4694 6.20509 10.261 6.28937 10.1601C6.38429 10.0462 6.64267 10.0388 6.64267 10.0388L8.36245 10.0277C8.36245 10.0277 8.52452 10.055 8.64028 10.1406C8.73752 10.2129 8.79123 10.3448 8.79123 10.3448C8.79123 10.3448 9.0686 11.0552 9.4358 11.6979C10.1549 12.9546 10.4892 13.2287 10.7337 13.0944C11.0898 12.8986 10.9838 11.3191 10.9838 11.3191C10.9838 11.3191 10.9893 10.7463 10.8037 10.4907C10.6592 10.2934 10.3892 10.2356 10.2688 10.2194C10.173 10.2064 10.3309 9.97996 10.5369 9.8767C10.8472 9.72436 11.3945 9.71464 12.0391 9.72436C12.5433 9.72899 12.6878 9.76048 12.8855 9.80863C13.3415 9.91995 13.3274 10.2776 13.2969 11.0496C13.2878 11.2795 13.2773 11.5461 13.2773 11.8539C13.2773 11.9239 13.2752 11.9985 13.2731 12.0753C13.2623 12.4693 13.2498 12.9197 13.506 13.0875C13.6394 13.1741 13.9612 13.1005 14.7674 11.7164C15.1233 11.1061 15.3962 10.3955 15.4324 10.3012C15.435 10.2944 15.4364 10.2908 15.4365 10.2907C15.5046 10.1073 15.6541 10.0527 15.8305 10.0522L17.6425 10.0397C17.6425 10.0397 18.1856 9.97487 18.2745 10.2245C18.3671 10.4838 18.0712 11.0927 17.3318 12.0896C16.6293 13.0363 16.2876 13.3837 16.3199 13.6918C16.3435 13.916 16.565 14.1194 16.9896 14.5179C17.8839 15.3568 18.1208 15.7957 18.1766 15.8991C18.1809 15.9072 18.1842 15.9132 18.1865 15.9172C18.5838 16.5849 17.7434 16.6368 17.7434 16.6368L16.1352 16.6599C16.1352 16.6599 15.7884 16.728 15.3355 16.4127C15.0964 16.2477 14.863 15.9772 14.6407 15.7196Z" fill="white"/></svg>