<svg xmlns="http://www.w3.org/2000/svg" xmlns:xlink="http://www.w3.org/1999/xlink"><symbol id="icon-arrow" viewBox="0 0 18 34"><g fill="none"><path d="M1 1L17 17L1 33" stroke="#AFAFAF"/></g></symbol><symbol id="icon-ok" viewBox="0 0 25 25"><g fill="none"><path fill-rule="evenodd" clip-rule="evenodd" d="M0 12.5C0 5.59692 5.59692 0 12.5 0C19.4031 0 25 5.59692 25 12.5C25 19.4031 19.4031 25 12.5 25C5.59692 25 0 19.4031 0 12.5ZM14.3095 8.57063C14.3095 7.64311 13.5788 6.88881 12.6803 6.88881C11.7818 6.88881 11.0511 7.64311 11.0511 8.57063C11.0511 9.49535 11.7818 10.2496 12.6803 10.2496C13.5788 10.2496 14.3095 9.49535 14.3095 8.57063ZM16.6153 8.57063C16.6153 10.8084 14.8508 12.6299 12.6803 12.6299C10.5099 12.6299 8.74808 10.8084 8.74808 8.57063C8.74808 6.33007 10.5099 4.50857 12.6803 4.50857C14.8508 4.50857 16.6153 6.33007 16.6153 8.57063ZM16.5558 14.9654C15.844 15.4264 15.0727 15.7533 14.2717 15.9432L16.4719 18.2117C16.9211 18.6755 16.9211 19.4298 16.4719 19.8936C16.0199 20.3601 15.2919 20.3601 14.8427 19.8936L12.6803 17.6642L10.5207 19.8936C10.2934 20.1254 9.99839 20.2428 9.7034 20.2428C9.40842 20.2428 9.11613 20.1254 8.88881 19.8936C8.43956 19.4298 8.43956 18.6755 8.88881 18.2117L11.089 15.9432C10.288 15.7533 9.51667 15.4264 8.80491 14.9654C8.26635 14.6162 8.10398 13.8815 8.44226 13.3255C8.78055 12.7668 9.49231 12.5992 10.0309 12.9512C11.6438 13.996 13.7169 13.996 15.3271 12.9512C15.8684 12.5992 16.5774 12.7668 16.9184 13.3255C17.2567 13.8815 17.0943 14.6162 16.5558 14.9654Z" fill="white"/></g></symbol><symbol id="icon-reddit" viewBox="0 0 25 25"><g fill="none"><path fill-rule="evenodd" clip-rule="evenodd" d="M0 12.5C0 5.59692 5.59692 0 12.5 0C19.4031 0 25 5.59692 25 12.5C25 19.4031 19.4031 25 12.5 25C5.59692 25 0 19.4031 0 12.5ZM12.7195 6.10741C12.9876 5.7816 13.4055 5.55566 13.8509 5.55566C14.5707 5.55566 15.054 6.04796 15.3031 6.37378C15.342 6.42431 15.377 6.47136 15.4086 6.51384C15.4781 6.6073 15.5312 6.67864 15.5733 6.71624C15.6345 6.77094 15.6514 6.77332 15.7421 6.77332V7.99098C15.4171 7.99098 15.1174 7.84115 14.9147 7.66754C14.7352 7.51375 14.6154 7.35624 14.514 7.22309C14.501 7.20593 14.4882 7.18916 14.4757 7.17286C14.4534 7.1439 14.433 7.11668 14.4138 7.09115C14.2455 6.86722 14.1749 6.77332 13.8509 6.77332C13.6841 6.77332 13.6124 6.82326 13.5132 6.94455C13.414 7.06584 13.3211 7.28702 13.243 7.59143C13.1184 8.07659 13.0741 8.72109 13.0572 9.34181C14.3026 9.42743 15.4297 9.79843 16.3669 10.3692C16.749 10.0481 17.2091 9.86978 17.6503 9.87454C18.1527 9.87929 18.6297 10.0957 18.9843 10.5404C19.6619 11.3895 19.5838 12.7784 18.7986 13.6036C18.8471 13.8581 18.883 14.1197 18.883 14.3837C18.883 17.1781 16.025 19.4446 12.5 19.4446C8.97498 19.4446 6.11698 17.1805 6.11698 14.3837C6.11698 14.1197 6.15286 13.8581 6.20142 13.6036C5.4162 12.7784 5.3381 11.3895 6.01566 10.5404C6.37028 10.0957 6.84731 9.87929 7.34968 9.87454C7.79083 9.86978 8.25098 10.0481 8.63303 10.3692C9.57444 9.79606 10.7079 9.42505 11.9596 9.34181C11.9723 8.66877 12.0251 7.92201 12.196 7.24897C12.3037 6.8304 12.4514 6.43323 12.7195 6.10741ZM15.8435 7.38215C15.8435 6.43561 16.5231 5.66982 17.3632 5.66982C18.2033 5.66982 18.883 6.43561 18.883 7.38215C18.883 8.32869 18.2033 9.09448 17.3632 9.09448C16.5231 9.09448 15.8435 8.32869 15.8435 7.38215ZM18.3426 7.38215C18.3426 6.77332 17.9036 6.27865 17.3632 6.27865C16.8229 6.27865 16.3838 6.77332 16.3838 7.38215C16.3838 7.99098 16.8229 8.48565 17.3632 8.48565C17.9036 8.48565 18.3426 7.99098 18.3426 7.38215ZM18.0218 14.3837C18.0218 12.1695 15.491 10.2931 12.5 10.2931C9.50901 10.2931 6.97818 12.1695 6.97818 14.3837C6.97818 16.6002 9.50901 18.4742 12.5 18.4742C15.491 18.4742 18.0218 16.6002 18.0218 14.3837ZM7.82249 10.959C7.67263 10.8853 7.51643 10.8472 7.36656 10.8449C7.09005 10.8425 6.83887 10.959 6.65734 11.1873C6.40827 11.4989 6.35339 12.0863 6.55602 12.5572C6.84943 11.9555 7.28002 11.4228 7.82249 10.959ZM18.3426 11.1873C18.1611 10.959 17.9099 10.8425 17.6334 10.8449C17.4835 10.8472 17.3273 10.8853 17.1775 10.959C17.72 11.4228 18.1506 11.9555 18.4439 12.5572C18.6466 12.0863 18.5917 11.4989 18.3426 11.1873ZM9.35915 13.4704C9.35915 12.8616 9.79819 12.3669 10.3385 12.3669C10.8789 12.3669 11.3179 12.8616 11.3179 13.4704C11.3179 14.0793 10.8789 14.5739 10.3385 14.5739C9.79819 14.5739 9.35915 14.0793 9.35915 13.4704ZM13.682 13.4704C13.682 12.8616 14.1211 12.3669 14.6614 12.3669C15.2018 12.3669 15.6408 12.8616 15.6408 13.4704C15.6408 14.0793 15.2018 14.5739 14.6614 14.5739C14.1211 14.5739 13.682 14.0793 13.682 13.4704ZM12.5 17.6942C11.223 17.6942 10.1591 16.9165 9.81507 16.115C10.4399 16.5693 11.4087 16.8761 12.5 16.8761C13.5913 16.8761 14.577 16.5693 15.2018 16.115C14.8577 16.9165 13.777 17.6942 12.5 17.6942Z" fill="white"/></g></symbol><symbol id="icon-vk" viewBox="0 0 25 25"><g fill="none"><path fill-rule="evenodd" clip-rule="evenodd" d="M0 12.5C0 5.59692 5.59692 0 12.5 0C19.4031 0 25 5.59692 25 12.5C25 19.4031 19.4031 25 12.5 25C5.59692 25 0 19.4031 0 12.5ZM14.6407 15.7196C14.3024 15.3275 13.9899 14.9654 13.7227 15.0518C13.2754 15.1953 13.2898 16.1719 13.2898 16.1719C13.2898 16.1719 13.2944 16.3807 13.1907 16.4919C13.0796 16.6113 12.8624 16.6363 12.8624 16.6363H12.1423C12.1423 16.6363 10.5531 16.734 9.15473 15.2606C7.62944 13.6557 6.28242 10.4694 6.28242 10.4694C6.28242 10.4694 6.20509 10.261 6.28937 10.1601C6.38429 10.0462 6.64267 10.0388 6.64267 10.0388L8.36245 10.0277C8.36245 10.0277 8.52452 10.055 8.64028 10.1406C8.73752 10.2129 8.79123 10.3448 8.79123 10.3448C8.79123 10.3448 9.0686 11.0552 9.4358 11.6979C10.1549 12.9546 10.4892 13.2287 10.7337 13.0944C11.0898 12.8986 10.9838 11.3191 10.9838 11.3191C10.9838 11.3191 10.9893 10.7463 10.8037 10.4907C10.6592 10.2934 10.3892 10.2356 10.2688 10.2194C10.173 10.2064 10.3309 9.97996 10.5369 9.8767C10.8472 9.72436 11.3945 9.71464 12.0391 9.72436C12.5433 9.72899 12.6878 9.76048 12.8855 9.80863C13.3415 9.91995 13.3274 10.2776 13.2969 11.0496C13.2878 11.2795 13.2773 11.5461 13.2773 11.8539C13.2773 11.9239 13.2752 11.9985 13.2731 12.0753C13.2623 12.4693 13.2498 12.9197 13.506 13.0875C13.6394 13.1741 13.9612 13.1005 14.7674 11.7164C15.1233 11.1061 15.3962 10.3955 15.4324 10.3012C15.435 10.2944 15.4364 10.2908 15.4365 10.2907C15.5046 10.1073 15.6541 10.0527 15.8305 10.0522L17.6425 10.0397C17.6425 10.0397 18.1856 9.97487 18.2745 10.2245C18.3671 10.4838 18.0712 11.0927 17.3318 12.0896C16.6293 13.0363 16.2876 13.3837 16.3199 13.6918C16.3435 13.916 16.565 14.1194 16.9896 14.5179C17.8839 15.3568 18.1208 15.7957 18.1766 15.8991C18.1809 15.9072 18.1842 15.9132 18.1865 15.9172C18.5838 16.5849 17.7434 16.6368 17.7434 16.6368L16.1352 16.6599C16.1352 16.6599 15.7884 16.728 15.3355 16.4127C15.0964 16.2477 14.863 15.9772 14.6407 15.7196Z" fill="white"/></g></symbol></svg>